<svg xmlns="http://www.w3.org/2000/svg" viewBox="0 0 512 512" fill="none">
  <defs>
    <radialGradient id="bgr" cx="50%" cy="50%" r="50%">
      <stop offset="0%" stop-color="#111820"/>
      <stop offset="100%" stop-color="#0c0a08"/>
    </radialGradient>
    <linearGradient id="acc" x1="0%" y1="0%" x2="100%" y2="100%">
      <stop offset="0%" stop-color="#00e5ff"/>
      <stop offset="100%" stop-color="#0066ff"/>
    </linearGradient>
    <filter id="gl" x="-30%" y="-30%" width="160%" height="160%">
      <feGaussianBlur stdDeviation="6" result="b"/>
      <feMerge><feMergeNode in="b"/><feMergeNode in="SourceGraphic"/></feMerge>
    </filter>
    <filter id="glS" x="-60%" y="-60%" width="220%" height="220%">
      <feGaussianBlur stdDeviation="3" result="b"/>
      <feMerge><feMergeNode in="b"/><feMergeNode in="SourceGraphic"/></feMerge>
    </filter>
  </defs>
  <rect width="512" height="512" rx="80" fill="url(#bgr)"/>
  <polygon points="256,28 462,141 462,371 256,484 50,371 50,141" stroke="#00e5ff" stroke-width="3" fill="none" opacity="0.18"/>
  <line x1="256" y1="110" x2="140" y2="183" stroke="#00ccff" stroke-width="2" opacity="0.35"/>
  <line x1="256" y1="110" x2="372" y2="183" stroke="#00ccff" stroke-width="2" opacity="0.35"/>
  <line x1="140" y1="183" x2="372" y2="183" stroke="#00ccff" stroke-width="2" opacity="0.25"/>
  <line x1="140" y1="183" x2="140" y2="329" stroke="#00ccff" stroke-width="2" opacity="0.25"/>
  <line x1="372" y1="183" x2="372" y2="329" stroke="#00ccff" stroke-width="2" opacity="0.25"/>
  <line x1="140" y1="329" x2="256" y2="402" stroke="#00ccff" stroke-width="2" opacity="0.35"/>
  <line x1="372" y1="329" x2="256" y2="402" stroke="#00ccff" stroke-width="2" opacity="0.35"/>
  <line x1="140" y1="183" x2="256" y2="256" stroke="#00ccff" stroke-width="1.5" opacity="0.2"/>
  <line x1="372" y1="183" x2="256" y2="256" stroke="#00ccff" stroke-width="1.5" opacity="0.2"/>
  <line x1="140" y1="329" x2="256" y2="256" stroke="#00ccff" stroke-width="1.5" opacity="0.2"/>
  <line x1="372" y1="329" x2="256" y2="256" stroke="#00ccff" stroke-width="1.5" opacity="0.2"/>
  <polygon points="256,196 296,219 296,266 256,289 216,266 216,219" stroke="url(#acc)" stroke-width="3.5" fill="#00ccff09" filter="url(#gl)"/>
  <g filter="url(#gl)">
    <line x1="239" y1="278" x2="256" y2="216" stroke="url(#acc)" stroke-width="9" stroke-linecap="round"/>
    <line x1="273" y1="278" x2="256" y2="216" stroke="url(#acc)" stroke-width="9" stroke-linecap="round"/>
    <line x1="244" y1="256" x2="268" y2="256" stroke="url(#acc)" stroke-width="7" stroke-linecap="round"/>
  </g>
  <circle cx="256" cy="110" r="11" fill="url(#acc)" filter="url(#gl)"/>
  <circle cx="140" cy="183" r="8" fill="#00ccff" opacity="0.8" filter="url(#glS)"/>
  <circle cx="372" cy="183" r="8" fill="#00ccff" opacity="0.8" filter="url(#glS)"/>
  <circle cx="140" cy="329" r="8" fill="#00ccff" opacity="0.8" filter="url(#glS)"/>
  <circle cx="372" cy="329" r="8" fill="#00ccff" opacity="0.8" filter="url(#glS)"/>
  <circle cx="256" cy="402" r="11" fill="url(#acc)" filter="url(#gl)"/>
  <circle cx="256" cy="256" r="52" stroke="#00ccff" stroke-width="1" fill="none" stroke-dasharray="6 10" opacity="0.4"/>
</svg>
